PathFileType	4	(X/Y/Z)	Walk5.trc
DataRate	CameraRate	NumFrames	NumMarkers	Units	OrigDataRate	OrigDataStartFrame	OrigNumFrames
200.000000	200.000000	4	59	mm	200.000000	496	534
Frame#	Times		LBHD		C7		T10		RBack		LPSI		RPSI		RCAR		LElbowM		RElbowM		LUA1		RBHD		RFA1		LLFC		LCAR		RWRR		RFHD		LACR1		RTH3		CLAV		LWRR		RUA1		RTH2		RACR1		LWRU		RTB4		RTH4		RTB3		RToe		RMT1		RWRU		LFA1		RCAL		RMT5		LTH4		LTH1		RElbow		RLFC		RTB1		RTB2		STRN		LElbow		LFHD		LTH2		LTH3		RMMAL		RLMAL		LTB3		LTB2		RASI		LCAL		LMT1		LASI		LLMAL		LTB1		LMT5		RTH1		LTB4		LToe		LMMAL
			X1	Y1	Z1	X2	Y2	Z2	X3	Y3	Z3	X4	Y4	Z4	X5	Y5	Z5	X6	Y6	Z6	X7	Y7	Z7	X8	Y8	Z8	X9	Y9	Z9	X10	Y10	Z10	X11	Y11	Z11	X12	Y12	Z12	X13	Y13	Z13	X14	Y14	Z14	X15	Y15	Z15	X16	Y16	Z16	X17	Y17	Z17	X18	Y18	Z18	X19	Y19	Z19	X20	Y20	Z20	X21	Y21	Z21	X22	Y22	Z22	X23	Y23	Z23	X24	Y24	Z24	X25	Y25	Z25	X26	Y26	Z26	X27	Y27	Z27	X28	Y28	Z28	X29	Y29	Z29	X30	Y30	Z30	X31	Y31	Z31	X32	Y32	Z32	X33	Y33	Z33	X34	Y34	Z34	X35	Y35	Z35	X36	Y36	Z36	X37	Y37	Z37	X38	Y38	Z38	X39	Y39	Z39	X40	Y40	Z40	X41	Y41	Z41	X42	Y42	Z42	X43	Y43	Z43	X44	Y44	Z44	X45	Y45	Z45	X46	Y46	Z46	X47	Y47	Z47	X48	Y48	Z48	X49	Y49	Z49	X50	Y50	Z50	X51	Y51	Z51	X52	Y52	Z52	X53	Y53	Z53	X54	Y54	Z54	X55	Y55	Z55	X56	Y56	Z56	X57	Y57	Z57	X58	Y58	Z58	X59	Y59	Z59

496	2.48	816.88	1494.1	-140.52	789.15	1358.5	-73.539	762.32	1090.1	-70.491	755.61	1261.8	56.202	741.53	904.42	-99.938	732.9	904.27	-0.39296	906.43	750.26	260.85	824.19	965.47	-260.73	786.52	970.22	136.52	888.35	1115.9	-307.87	809.11	1500.6	-17.327	830.86	883.47	230.88	859.76	450.87	-171.66	985.38	726.75	-361.18	929.7	788.66	213.63	988.72	1506.6	-32.296	880.01	1291.2	-228.38	960.64	563.16	133.45	913.37	1280.4	-56.896	991.2	766.97	-311.73	851.71	1150.4	173.57	999.92	682.44	128.89	850.99	1302.2	87.454	932.65	762.42	-355.26	945.59	267.64	45.007	930.41	652.73	149.69	906.44	183.22	38.008	960.12	42.319	68.22	922.32	76.146	40.433	858.17	774.42	227.99	893.43	878.51	-348.02	770.61	122.79	29.699	886.38	70.39	84.055	905.08	650.91	-202.7	907.86	741	-230.67	827.44	1010.2	215.16	1003.9	473.73	127	997.84	342.65	49.449	911.65	281.34	107.85	976.47	1176.3	-51.319	857.07	998.2	-324.51	988.32	1498.3	-109.73	962.79	662.41	-159.05	896.86	558.99	-179.46	851.76	128.14	-4.0889	828.2	126.91	72.016	854.93	157.23	-73.813	837.31	246.14	-150.7	1024.4	867	105.37	752.92	29.078	-74.291	907.65	45.74	-58.679	959.84	850.34	-198.24	800.77	60.688	-114.8	880.97	337.27	-89.474	886.42	27.248	-114.53	903.07	736.83	168.15	859.73	248.51	-83.468	964.48	20.918	-62.813	816.47	67.663	-36.302
497	2.485	822.65	1493.7	-140.25	794.91	1358.1	-73.397	767.7	1089.8	-70.543	761.15	1261.5	56.17	746.65	904.1	-99.714	738.2	903.77	-0.10263	908.83	749.48	261.73	830.87	964.91	-260.85	791.11	969.93	135.91	894.44	1115.6	-307.86	814.84	1500.1	-17.065	834.08	882.99	230.8	862.42	450.6	-171.68	993.46	726.94	-360.75	932.72	787.83	214.7	994.46	1506.2	-31.972	885.76	1290.9	-228.22	968.53	563.46	132.82	919.03	1279.9	-56.746	998.99	767.21	-311.31	856.41	1149.9	173.61	1006.8	683.02	128.08	856.56	1301.7	87.567	940.54	762.37	-354.95	958.56	266.46	44.622	937.75	652.81	149.3	921.71	180.98	37.982	979.48	42.013	68.601	940.62	74.634	40.766	861.05	773.81	228.33	900.73	878.22	-347.93	787.55	116.73	30.185	904.95	67.905	84.461	909.28	650.32	-202.63	912.76	740.38	-230.64	831.24	1009.7	215	1012.1	474.22	125.9	1008.8	342.88	48.69	924.41	279.42	107.52	981.99	1175.6	-51.222	863.7	997.78	-324.55	994.1	1498	-109.43	966.83	661.46	-158.67	900.33	558.49	-179.34	868.45	124.32	-3.8757	845.13	122.56	72.412	855.64	157.01	-73.76	838.64	245.97	-150.73	1026.2	867.18	105.2	752.91	29.221	-74.257	907.67	45.686	-58.584	967.85	850.53	-198.77	800.96	60.75	-114.71	882.84	336.87	-89.481	886.41	27.238	-114.49	909.84	736.67	167.96	860.86	248.17	-83.34	964.58	20.861	-62.854	816.58	67.681	-36.183
498	2.49	828.41	1493.2	-139.97	800.68	1357.7	-73.245	773.1	1089.4	-70.561	766.69	1261.1	56.153	751.78	903.75	-99.444	743.51	903.24	0.22675	911.23	748.67	262.58	837.58	964.3	-260.95	795.67	969.6	135.34	900.55	1115.2	-307.83	820.58	1499.5	-16.798	837.3	882.47	230.73	865.13	450.3	-171.68	1001.5	727.07	-360.3	935.75	786.98	215.76	1000.2	1505.8	-31.64	891.51	1290.5	-228.06	976.27	563.68	132.17	924.69	1279.3	-56.591	1006.8	767.38	-310.88	861.14	1149.3	173.67	1013.7	683.5	127.28	862.15	1301.1	87.69	948.4	762.27	-354.64	971.54	265.31	44.248	945	652.82	148.92	937.04	178.82	37.972	998.83	41.829	69.017	958.97	73.228	41.126	863.94	773.2	228.66	908.01	877.87	-347.8	804.68	110.76	30.65	923.58	65.55	84.891	913.48	649.7	-202.56	917.64	739.72	-230.6	835.05	1009.2	214.85	1020.1	474.64	124.8	1019.6	343.11	47.931	937.16	277.52	107.2	987.52	1174.9	-51.127	870.33	997.31	-324.57	999.87	1497.6	-109.12	970.9	660.49	-158.33	903.82	557.96	-179.2	885.29	120.6	-3.6606	862.17	118.33	72.813	856.35	156.78	-73.677	840.02	245.79	-150.74	1027.8	867.34	105.04	752.89	29.368	-74.217	907.69	45.628	-58.479	975.38	850.69	-199.26	801.15	60.819	-114.61	884.77	336.44	-89.459	886.41	27.234	-114.45	916.56	736.45	167.8	862.03	247.84	-83.196	964.69	20.809	-62.902	816.7	67.703	-36.05
499	2.495	834.17	1492.7	-139.68	806.46	1357.2	-73.083	778.53	1089	-70.544	772.26	1260.6	56.151	756.9	903.37	-99.128	748.84	902.69	0.59213	913.63	747.83	263.42	844.29	963.63	-261.01	800.22	969.23	134.82	906.69	1114.8	-307.78	826.31	1498.9	-16.524	840.54	881.92	230.66	867.9	449.97	-171.66	1009.5	727.14	-359.84	938.78	786.11	216.83	1005.9	1505.4	-31.298	897.27	1290	-227.9	983.85	563.82	131.5	930.37	1278.7	-56.431	1014.5	767.48	-310.44	865.88	1148.7	173.73	1020.5	683.86	126.49	867.75	1300.4	87.825	956.21	762.11	-354.31	984.51	264.2	43.884	952.15	652.76	148.53	952.42	176.75	37.978	1018.2	41.776	69.463	977.36	71.942	41.509	866.84	772.56	228.97	915.26	877.47	-347.65	821.99	104.93	31.093	942.25	63.341	85.344	917.68	649.05	-202.48	922.5	739.02	-230.56	838.86	1008.6	214.72	1028.1	474.99	123.71	1030.4	343.33	47.174	949.9	275.66	106.86	993.06	1174.2	-51.034	876.96	996.77	-324.55	1005.6	1497.2	-108.8	975.01	659.49	-158.02	907.34	557.41	-179.06	902.28	117	-3.4465	879.33	114.22	73.22	857.09	156.53	-73.561	841.46	245.6	-150.73	1029.2	867.48	104.89	752.87	29.522	-74.167	907.72	45.567	-58.364	982.4	850.83	-199.71	801.36	60.898	-114.5	886.74	336	-89.402	886.42	27.239	-114.41	923.24	736.16	167.67	863.24	247.49	-83.036	964.82	20.763	-62.954	816.83	67.73	-35.898
